<svg width="10" height="13" viewBox="0 0 10 13" fill="none" xmlns="http://www.w3.org/2000/svg">
<path d="M5 4C7.76142 4 10 3.10457 10 2C10 0.89543 7.76142 0 5 0C2.23858 0 0 0.89543 0 2C0 3.10457 2.23858 4 5 4Z" fill="white"/>
<path d="M9.443 4.1001C8.272 4.7101 6.603 5.0001 5 5.0001C3.397 5.0001 1.728 4.7101 0.557 4.1001C0.213 4.3721 0 4.6751 0 5.0001C0 6.1051 2.239 7.0001 5 7.0001C7.761 7.0001 10 6.1051 10 5.0001C10 4.6751 9.787 4.3721 9.443 4.1001Z" fill="white"/>
<path d="M9.443 7.1001C8.272 7.7101 6.603 8.0001 5 8.0001C3.397 8.0001 1.728 7.7101 0.557 7.1001C0.213 7.3721 0 7.6751 0 8.0001C0 9.1051 2.239 10.0001 5 10.0001C7.761 10.0001 10 9.1051 10 8.0001C10 7.6751 9.787 7.3721 9.443 7.1001Z" fill="white"/>
<path d="M9.443 10.1001C8.272 10.7101 6.603 11.0001 5 11.0001C3.397 11.0001 1.728 10.7101 0.557 10.1001C0.213 10.3721 0 10.6751 0 11.0001C0 12.1051 2.239 13.0001 5 13.0001C7.761 13.0001 10 12.1051 10 11.0001C10 10.6751 9.787 10.3721 9.443 10.1001Z" fill="white"/>
</svg>
