<svg width="90" height="90" viewBox="0 0 90 90" fill="none" xmlns="http://www.w3.org/2000/svg">
<path d="M45 0C20.1827 0 0 20.1827 0 45C0 69.8173 20.1827 90 45 90C69.8173 90 90 69.8173 90 45C90 20.1827 69.8173 0 45 0ZM45 6C66.5746 6 84 23.4254 84 45C84 66.5746 66.5746 84 45 84C23.4254 84 6 66.5746 6 45C6 23.4254 23.4254 6 45 6ZM37.9375 23.5938C37.54 23.5881 37.1453 23.6616 36.7764 23.8098C36.4075 23.9581 36.0717 24.1781 35.7886 24.4573C35.5055 24.7364 35.2807 25.069 35.1272 25.4358C34.9738 25.8026 34.8948 26.1962 34.8948 26.5938C34.8948 26.9913 34.9738 27.3849 35.1272 27.7517C35.2807 28.1185 35.5055 28.4511 35.7886 28.7302C36.0717 29.0094 36.4075 29.2294 36.7764 29.3777C37.1453 29.5259 37.54 29.5994 37.9375 29.5938H56.1562L24.5 61.25C23.9364 61.8136 23.6198 62.578 23.6198 63.375C23.6198 64.172 23.9364 64.9364 24.5 65.5C25.0636 66.0636 25.828 66.3802 26.625 66.3802C27.422 66.3802 28.1864 66.0636 28.75 65.5L60.375 33.8438V52.0625C60.3694 52.46 60.4428 52.8547 60.5911 53.2236C60.7393 53.5925 60.9594 53.9283 61.2385 54.2114C61.5177 54.4945 61.8503 54.7193 62.217 54.8728C62.5838 55.0262 62.9774 55.1052 63.375 55.1052C63.7726 55.1052 64.1662 55.0262 64.533 54.8728C64.8997 54.7193 65.2323 54.4945 65.5115 54.2114C65.7906 53.9283 66.0107 53.5925 66.1589 53.2236C66.3072 52.8547 66.3806 52.46 66.375 52.0625V26.5938C66.3749 25.7981 66.0588 25.0351 65.4962 24.4725C64.9336 23.9099 64.1706 23.5938 63.375 23.5938H37.9375Z" fill="white"/>
</svg>
