<?xml version="1.0"?><svg fill="#fff" xmlns="http://www.w3.org/2000/svg"  viewBox="0 0 30 30" width="30px" height="30px">    <path d="M24.707,7.793l-5.5-5.5C19.019,2.105,18.765,2,18.5,2H7C5.895,2,5,2.895,5,4v22c0,1.105,0.895,2,2,2h16c1.105,0,2-0.895,2-2 V8.5C25,8.235,24.895,7.981,24.707,7.793z M17,23h-7c-0.552,0-1-0.448-1-1s0.448-1,1-1h7c0.552,0,1,0.448,1,1S17.552,23,17,23z M20,19H10c-0.552,0-1-0.448-1-1s0.448-1,1-1h10c0.552,0,1,0.448,1,1S20.552,19,20,19z M20,15H10c-0.552,0-1-0.448-1-1s0.448-1,1-1 h10c0.552,0,1,0.448,1,1S20.552,15,20,15z M19,9c-0.552,0-1-0.448-1-1V3.904L23.096,9H19z"/></svg>