<svg width="25" height="26" viewBox="0 0 25 26" fill="none" xmlns="http://www.w3.org/2000/svg">
<path d="M23.1 4.99995L12.5 0.899951C12.1 0.799951 11.8 0.799951 11.4 0.899951L0.9 4.99995C0.4 5.29995 0 5.79995 0 6.39995V7.59995C0 8.39995 0.7 9.09995 1.5 9.09995H1.8V9.69995C1.8 10.3 2.1 10.8 2.6 11V19.7C2.1 19.9 1.8 20.4 1.8 21V21.5H1.5C0.7 21.6 0 22.2 0 23V23.7C0 24.5 0.7 25.2 1.5 25.2H22.6C23.4 25.2 24.1 24.5 24.1 23.7V23C24.1 22.2 23.4 21.5 22.6 21.5H21.9V21C21.9 20.4 21.6 19.9 21.1 19.7V11C21.6 10.8 21.9 10.3 21.9 9.69995V9.09995H22.6C23.4 9.09995 24.1 8.39995 24.1 7.59995V6.39995C24 5.79995 23.6 5.29995 23.1 4.99995ZM10.3 19.7C9.8 19.9 9.5 20.4 9.5 21V21.5H6.4V21C6.4 20.4 6.1 19.9 5.6 19.7V11C6.1 10.8 6.4 10.3 6.4 9.69995V9.09995H9.5V9.69995C9.5 10.3 9.8 10.8 10.3 11V19.7ZM10.1 4.99995C10.1 3.89995 11 3.09995 12 3.09995C13.1 3.09995 13.9 3.99995 13.9 4.99995C13.9 6.09995 13 6.89995 12 6.89995C10.9 6.89995 10.1 6.09995 10.1 4.99995ZM18 19.7C17.5 19.9 17.2 20.4 17.2 21V21.5H14.1V21C14.1 20.4 13.8 19.9 13.3 19.7V11C13.8 10.8 14.1 10.3 14.1 9.69995V9.09995H17.2V9.69995C17.2 10.3 17.5 10.8 18 11V19.7Z" fill="white"/>
</svg>
