<svg width="94" height="96" viewBox="0 0 94 96" fill="none" xmlns="http://www.w3.org/2000/svg">
<path d="M52.9 19.2002L50 18.9002C49.7 18.9002 49.5 18.7002 49.3 18.4002L48.1 15.7002C47.7 14.7002 46.3 14.7002 45.9 15.7002L44.7 18.4002C44.6 18.7002 44.3 18.8002 44 18.9002L41.1 19.2002C40.1 19.3002 39.6 20.6002 40.4 21.3002L42.6 23.3002C42.8 23.5002 42.9 23.8002 42.9 24.1002L42.2 27.0002C42 28.0002 43.1 28.8002 44 28.3002L46.5 26.9002C46.8 26.8002 47.1 26.8002 47.3 26.9002L49.9 28.3002C50.8 28.8002 51.9 28.0002 51.7 27.0002L51.1 24.1002C51 23.8002 51.1 23.5002 51.4 23.3002L53.6 21.3002C54.4 20.7002 53.9 19.4002 52.9 19.2002Z" fill="white"/>
<path d="M78.2 81.9C87.7 73.3 93.7 61 93.7 47.2C93.7 21.4 72.7 0.5 47 0.5C21.3 0.5 0.299988 21.4 0.299988 47.2C0.299988 61 6.29999 73.3 15.8 81.9L9.79999 91C8.49999 92.9 9.89999 95.5 12.2 95.5H81.7C84 95.5 85.4 92.9 84.1 91L78.2 81.9ZM41.2 53.1C40.1 53.1 39.1 52.2 39.1 51C39.1 49.9 40 48.9 41.2 48.9C42.4 48.9 43.3 49.8 43.3 51C43.3 52.2 42.4 53.1 41.2 53.1ZM39.7 65.9C39.7 67 38.8 68 37.6 68C36.5 68 35.5 67 35.5 65.9C35.5 64.8 36.4 63.8 37.6 63.8C38.8 63.8 39.7 64.8 39.7 65.9ZM47 61.8C45.9 61.8 44.9 60.9 44.9 59.7C44.9 58.6 45.8 57.6 47 57.6C48.1 57.6 49.1 58.5 49.1 59.7C49.1 60.9 48.1 61.8 47 61.8ZM47 42.4C45.9 42.4 44.9 41.5 44.9 40.3C44.9 39.2 45.8 38.2 47 38.2C48.1 38.2 49.1 39.1 49.1 40.3C49.1 41.5 48.1 42.4 47 42.4ZM50.7 51C50.7 49.9 51.7 48.9 52.8 48.9C53.9 48.9 54.9 49.8 54.9 51C54.9 52.1 54 53.1 52.8 53.1C51.7 53.1 50.7 52.2 50.7 51ZM56.3 63.8C57.4 63.8 58.4 64.7 58.4 65.9C58.4 67 57.4 68 56.3 68C55.2 68 54.2 67 54.2 65.9C54.3 64.8 55.2 63.8 56.3 63.8ZM73.6 77.8C71.9 79.2 69.8 80 67.6 80H51.8L51.4 73.4C56.6 73 61.8 71.9 67.3 70C68.4 69.6 68.7 68.2 67.8 67.4C64.6 64.4 61.9 61.5 59.5 58.8C61.1 58.4 62.8 58 64.7 57.3C65.8 56.9 66.1 55.5 65.3 54.7C61.7 51.2 58.7 48 56.2 45C57.2 44.8 58.3 44.5 59.6 44.1C60.7 43.7 61 42.4 60.2 41.5C56.2 37.6 53.2 34.1 51.2 31.2C51 31.2 50.7 31.3 50.5 31.3C49.8 31.3 49.1 31.1 48.5 30.8L47 29.9L45.5 30.8C44.9 31.2 44.2 31.3 43.5 31.3C43.3 31.3 43 31.3 42.8 31.2C40.7 34.1 37.8 37.7 33.8 41.5C33 42.3 33.3 43.7 34.4 44.1C35.6 44.5 36.8 44.8 37.8 45C35.3 48 32.3 51.3 28.7 54.7C27.8 55.5 28.2 56.9 29.3 57.3C31.2 57.9 32.9 58.4 34.5 58.8C32.1 61.5 29.4 64.4 26.2 67.4C25.3 68.2 25.6 69.6 26.7 70C32.2 71.9 37.4 73 42.6 73.4L42.1 80H26.3C24.1 80 22 79.2 20.3 77.8C11.7 70.4 6.29999 59.4 6.29999 47.2C6.39999 24.8 24.6 6.6 47 6.6C69.4 6.6 87.6 24.8 87.6 47.2C87.6 59.4 82.2 70.3 73.6 77.8Z" fill="white"/>
<path d="M31.4 27.2998C30.3 27.2998 29.3 28.1998 29.3 29.3998C29.3 30.4998 30.2 31.4998 31.4 31.4998C32.6 31.4998 33.5 30.5998 33.5 29.3998C33.5 28.1998 32.6 27.2998 31.4 27.2998Z" fill="white"/>
<path d="M32.4 15.2998C31.3 15.2998 30.3 16.1998 30.3 17.3998C30.3 18.4998 31.2 19.4998 32.4 19.4998C33.5 19.4998 34.5 18.5998 34.5 17.3998C34.5 16.2998 33.5 15.2998 32.4 15.2998Z" fill="white"/>
<path d="M21.1 31.8002C21.1 30.7002 20.2 29.7002 19 29.7002C17.9 29.7002 16.9 30.6002 16.9 31.8002C16.9 32.9002 17.8 33.9002 19 33.9002C20.1 33.8002 21.1 32.9002 21.1 31.8002Z" fill="white"/>
<path d="M25.7 45.8001C26.8598 45.8001 27.8 44.8599 27.8 43.7001C27.8 42.5403 26.8598 41.6001 25.7 41.6001C24.5402 41.6001 23.6 42.5403 23.6 43.7001C23.6 44.8599 24.5402 45.8001 25.7 45.8001Z" fill="white"/>
<path d="M14.4 50.8001C15.5598 50.8001 16.5 49.8599 16.5 48.7001C16.5 47.5403 15.5598 46.6001 14.4 46.6001C13.2402 46.6001 12.3 47.5403 12.3 48.7001C12.3 49.8599 13.2402 50.8001 14.4 50.8001Z" fill="white"/>
<path d="M19.8 58.1001C18.7 58.1001 17.7 59.0001 17.7 60.2001C17.7 61.3001 18.6 62.3001 19.8 62.3001C21 62.3001 21.9 61.4001 21.9 60.2001C21.9 59.0001 20.9 58.1001 19.8 58.1001Z" fill="white"/>
<path d="M63.9 18.2001C63.9 17.1001 63 16.1001 61.8 16.1001C60.7 16.1001 59.7 17.0001 59.7 18.2001C59.7 19.3001 60.6 20.3001 61.8 20.3001C63 20.3001 63.9 19.4001 63.9 18.2001Z" fill="white"/>
<path d="M62.9 29C61.8 29 60.8 29.9 60.8 31.1C60.8 32.2 61.7 33.2 62.9 33.2C64 33.2 65 32.3 65 31.1C65 29.9 64.1 29 62.9 29Z" fill="white"/>
<path d="M75.2 30.7002C74.1 30.7002 73.1 31.6002 73.1 32.8002C73.1 34.0002 74 34.9002 75.2 34.9002C76.3 34.9002 77.3 34.0002 77.3 32.8002C77.3 31.6002 76.3 30.7002 75.2 30.7002Z" fill="white"/>
<path d="M69.2 42.5C68.1 42.5 67.1 43.4 67.1 44.6C67.1 45.8 68 46.7 69.2 46.7C70.3 46.7 71.3 45.8 71.3 44.6C71.3 43.4 70.4 42.5 69.2 42.5Z" fill="white"/>
<path d="M74.3 62.9002C75.4598 62.9002 76.4 61.96 76.4 60.8002C76.4 59.6404 75.4598 58.7002 74.3 58.7002C73.1402 58.7002 72.2 59.6404 72.2 60.8002C72.2 61.96 73.1402 62.9002 74.3 62.9002Z" fill="white"/>
<path d="M79.3 50.8001C80.4598 50.8001 81.4 49.8599 81.4 48.7001C81.4 47.5403 80.4598 46.6001 79.3 46.6001C78.1402 46.6001 77.2 47.5403 77.2 48.7001C77.2 49.8599 78.1402 50.8001 79.3 50.8001Z" fill="white"/>
</svg>
