<svg width="230" height="40" viewBox="0 0 230 40" fill="none" xmlns="http://www.w3.org/2000/svg">
<circle cx="20" cy="20" r="20" fill="white"/>
<path d="M7.5 20.0048C7.5 18.8567 8.43472 17.9228 9.58326 17.9228H16.3913L12.988 12.0303C12.8051 11.7141 12.7083 11.3543 12.7083 10.9904C12.7083 10.2482 13.1074 9.55657 13.7504 9.18591C14.7457 8.61215 16.0225 8.954 16.5963 9.94838L20.0001 15.8409L23.4046 9.94838C23.6828 9.46662 24.1323 9.12184 24.6696 8.9781C25.207 8.83407 25.7685 8.90814 26.2505 9.18621C26.8935 9.55715 27.2926 10.2485 27.2926 10.9904C27.2926 11.3543 27.1958 11.7141 27.0132 12.0303L23.6087 17.9228H30.4167C31.5656 17.9228 32.5 18.8567 32.5 20.0048C32.5 21.1529 31.5656 22.0867 30.4167 22.0867H23.6087L27.0126 27.9798C27.1955 28.2961 27.292 28.6559 27.292 29.0198C27.292 29.7614 26.8929 30.4527 26.2502 30.824C25.2549 31.398 23.9784 31.0562 23.404 30.0618L20.0001 24.169L16.5957 30.0612C16.0219 31.0556 14.7451 31.3974 13.7498 30.824C13.1071 30.4527 12.708 29.762 12.708 29.0198C12.708 28.6556 12.8048 28.2958 12.9874 27.9793L16.3913 22.087H9.58326C8.43442 22.087 7.5 21.1529 7.5 20.0048Z" fill="#212A68"/>
<path d="M60 24.47C60.63 27.98 63.54 30.02 67.65 30.02C71.55 30.02 74.49 27.86 74.49 24.29C74.49 21.5 72.66 19.79 69.66 19.1L66.3 18.32C64.92 17.99 64.23 17.36 64.23 16.31C64.23 14.99 65.4 14.15 67.14 14.15C69.06 14.15 70.11 15.11 70.53 16.34H74.34C73.74 13.22 71.31 11 67.11 11C63.24 11 60.48 13.34 60.48 16.67C60.48 19.7 62.52 21.11 65.16 21.71L68.46 22.46C70.05 22.82 70.71 23.42 70.71 24.53C70.71 26 69.48 26.84 67.62 26.84C65.82 26.84 64.47 26.09 63.96 24.47H60Z" fill="white"/>
<path d="M95.5882 11.3H91.8982V22.94L83.7682 11.3H80.1682V29.72H83.8582V17.45L92.5582 29.72H95.5882V11.3Z" fill="white"/>
<path d="M118.653 20.51C118.653 14.99 115.053 11 109.923 11C104.793 11 101.223 14.99 101.223 20.51C101.223 26 104.793 30.02 109.923 30.02C115.053 30.02 118.653 26 118.653 20.51ZM114.783 20.51C114.783 24.11 112.863 26.6 109.923 26.6C107.013 26.6 105.123 24.11 105.123 20.51C105.123 16.91 107.013 14.42 109.923 14.42C112.863 14.42 114.783 16.91 114.783 20.51Z" fill="white"/>
<path d="M132.72 11.3L129.48 23.69L126.48 11.3H122.61L127.41 29.72H130.92L134.16 17.57L137.4 29.72H140.91L145.71 11.3H141.93L138.9 23.69L135.72 11.3H132.72Z" fill="white"/>
<path d="M161.668 20.21C163.018 19.73 164.098 18.29 164.098 16.31C164.098 13.01 161.728 11.3 157.888 11.3H150.838V29.72H158.488C162.328 29.72 164.668 27.89 164.668 24.5C164.668 22.49 163.408 20.78 161.668 20.21ZM154.528 18.86V14.54H157.648C159.478 14.54 160.438 15.2 160.438 16.67C160.438 18.14 159.478 18.86 157.648 18.86H154.528ZM154.528 21.86H158.158C159.958 21.86 160.918 22.73 160.918 24.17C160.918 25.58 159.958 26.48 158.158 26.48H154.528V21.86Z" fill="white"/>
<path d="M175.711 11.3L168.661 29.72H172.501L174.121 25.28H181.021L182.671 29.72H186.571L179.521 11.3H175.711ZM177.571 15.92L179.821 22.04H175.321L177.571 15.92Z" fill="white"/>
<path d="M207.209 11.3H203.519V22.94L195.389 11.3H191.789V29.72H195.479V17.45L204.179 29.72H207.209V11.3Z" fill="white"/>
<path d="M217.584 11.3H213.744V29.72H217.584V24.26L219.324 22.19L224.784 29.72H229.434L222.144 19.55L229.164 11.3H224.514L217.584 19.58V11.3Z" fill="white"/>
</svg>
