<svg width="300" height="354" viewBox="0 0 300 354" fill="none" xmlns="http://www.w3.org/2000/svg">
<path d="M299.26 82.6998C299.131 82.0514 298.901 81.4381 298.69 80.8248C298.573 80.4928 298.518 80.149 298.378 79.8209C298.085 79.1373 297.717 78.5045 297.331 77.8678C297.202 77.6451 297.1 77.3991 296.96 77.1803C296.393 76.3444 295.756 75.5631 295.045 74.8522L225.1 4.90721C219.085 -1.10839 209.342 -1.10839 203.323 4.90721C197.308 10.915 197.308 20.6652 203.323 26.6842L246.987 70.3522H19.0974C10.5896 70.3522 3.69943 77.2467 3.69943 85.7502C3.69943 94.258 10.5939 101.148 19.0974 101.148H246.987L203.311 144.824C197.296 150.832 197.296 160.582 203.311 166.601C206.319 169.609 210.257 171.113 214.198 171.113C218.14 171.113 222.077 169.605 225.085 166.601L295.046 96.6442C295.757 95.9333 296.394 95.1481 296.961 94.3161C297.101 94.0974 297.203 93.8513 297.332 93.6286C297.711 92.9958 298.089 92.3591 298.379 91.6755C298.511 91.3513 298.574 91.0036 298.691 90.6716C298.898 90.0544 299.129 89.445 299.261 88.7966C299.457 87.8005 299.57 86.7849 299.57 85.7497C299.57 84.7145 299.457 83.695 299.261 82.6989L299.26 82.6998ZM280.897 252.86H53.0073L96.6833 209.184C102.699 203.176 102.699 193.426 96.6833 187.407C90.6677 181.388 80.9253 181.391 74.9063 187.407L4.94534 257.368C4.2344 258.079 3.59763 258.864 3.03123 259.696C2.89842 259.907 2.80076 260.145 2.67967 260.356C2.29295 260.993 1.90624 261.637 1.62108 262.337C1.49217 262.657 1.42966 262.997 1.31248 263.321C1.10545 263.942 0.87107 264.559 0.73436 265.215C0.53124 266.212 0.425781 267.227 0.425781 268.262C0.425781 269.298 0.53124 270.313 0.73436 271.309C0.86327 271.965 1.09764 272.579 1.31248 273.204C1.42967 273.528 1.48437 273.872 1.62108 274.188C1.91405 274.883 2.29295 275.528 2.67967 276.169C2.80467 276.38 2.89842 276.618 3.03123 276.829C3.59764 277.665 4.23434 278.446 4.94534 279.157L74.8943 349.106C77.9021 352.114 81.8396 353.618 85.7813 353.618C89.723 353.618 93.6602 352.11 96.6683 349.106C102.684 343.098 102.684 333.348 96.6683 327.329L53.0043 283.661H280.894C289.402 283.661 296.292 276.766 296.292 268.263C296.292 259.759 289.406 252.861 280.897 252.861V252.86Z" fill="white"/>
</svg>
