<svg width="60" height="60" viewBox="0 0 60 60" fill="none" xmlns="http://www.w3.org/2000/svg">
<path d="M30 60C46.5685 60 60 46.5685 60 30C60 13.4315 46.5685 0 30 0C13.4315 0 0 13.4315 0 30C0 46.5685 13.4315 60 30 60Z" fill="#E84142"/>
<path d="M40.5829 30.7796C41.6223 28.9843 43.2994 28.9843 44.3388 30.7796L50.8112 42.1418C51.8506 43.937 51.0002 45.4016 48.9215 45.4016H35.8821C33.827 45.4016 32.9766 43.937 33.9923 42.1418L40.5829 30.7796ZM28.0632 8.90554C29.1026 7.11026 30.7561 7.11026 31.7955 8.90554L33.2364 11.504L36.638 17.4803C37.4648 19.1811 37.4648 21.189 36.638 22.8898L25.2286 42.6614C24.1892 44.2677 22.4648 45.2835 20.5514 45.4016H11.079C9.00023 45.4016 8.14983 43.9607 9.1892 42.1418L28.0632 8.90554Z" fill="white"/>
</svg>
