<svg width="32" height="32" viewBox="0 0 32 32" fill="none" xmlns="http://www.w3.org/2000/svg">
<path d="M5.33333 13.3333H8V10.6666H5.33333V13.3333Z" fill="#FED955"/>
<path d="M5.33333 18.6667H8V16.0001H5.33333V18.6667Z" fill="#FED955"/>
<path d="M5.33333 16H8V13.3333H5.33333V16Z" fill="#FED955"/>
<path d="M5.33333 21.3333H8V18.6666H5.33333V21.3333Z" fill="#FED955"/>
<path d="M15.9998 8H18.6665V5.33333H15.9998V8Z" fill="#FED955"/>
<path d="M15.9998 24L18.6665 24L18.6665 26.6667L15.9998 26.6667L15.9998 24Z" fill="#FED955"/>
<path d="M18.6668 8H21.3335V5.33333H18.6668V8Z" fill="#FED955"/>
<path d="M21.3333 8H24V5.33333H21.3333V8Z" fill="#9695F8"/>
<path d="M10.6667 8L8 8L8 5.33333L10.6667 5.33333L10.6667 8Z" fill="#9695F8"/>
<path d="M26.6667 24L24 24L24 21.3333L26.6667 21.3333L26.6667 24Z" fill="#9695F8"/>
<path d="M5.33333 24H8V21.3333H5.33333V24Z" fill="#9695F8"/>
<path d="M18.6668 5.33325H21.3335V2.66659L18.6668 2.66659V5.33325Z" fill="#9695F8"/>
<path d="M18.6668 2.66675L21.3335 2.66675V8.13007e-05L18.6668 8.13007e-05V2.66675Z" fill="#5552FD"/>
<path d="M18.6668 32H21.3335V29.3333H18.6668V32Z" fill="#5552FD"/>
<path d="M18.6668 29.3333H21.3335V26.6666H18.6668V29.3333Z" fill="#9695F8"/>
<path d="M13.3333 5.33325H16V2.66659L13.3333 2.66659V5.33325Z" fill="#9695F8"/>
<path d="M13.3333 2.66675L16 2.66675V8.13007e-05L13.3333 8.13007e-05V2.66675Z" fill="#5552FD"/>
<path d="M13.3333 32H16V29.3333H13.3333V32Z" fill="#5552FD"/>
<path d="M13.3333 29.3333H16V26.6666H13.3333V29.3333Z" fill="#9695F8"/>
<path d="M15.9998 5.33325H18.6665V2.66659L15.9998 2.66659V5.33325Z" fill="#9695F8"/>
<path d="M15.9998 2.66675L18.6665 2.66675V8.13007e-05L15.9998 8.13007e-05V2.66675Z" fill="#5552FD"/>
<path d="M15.9998 32H18.6665V29.3333H15.9998V32Z" fill="#5552FD"/>
<path d="M15.9998 29.3333H18.6665V26.6666H15.9998V29.3333Z" fill="#9695F8"/>
<path d="M10.6668 5.33325H13.3335V2.66659L10.6668 2.66659V5.33325Z" fill="#9695F8"/>
<path d="M10.6668 2.66675L13.3335 2.66675V8.13007e-05L10.6668 8.13007e-05V2.66675Z" fill="#5552FD"/>
<path d="M10.6668 32H13.3335V29.3333H10.6668V32Z" fill="#5552FD"/>
<path d="M10.6668 29.3333H13.3335V26.6666H10.6668V29.3333Z" fill="#9695F8"/>
<path d="M23.9998 10.6667H26.6665V8.00008H23.9998V10.6667Z" fill="#9695F8"/>
<path d="M8.00016 10.6667L5.3335 10.6667L5.3335 8.00008L8.00016 8.00008L8.00016 10.6667Z" fill="#9695F8"/>
<path d="M24.0002 26.6667L21.3335 26.6667L21.3335 24.0001L24.0002 24.0001L24.0002 26.6667Z" fill="#9695F8"/>
<path d="M7.99984 26.6667H10.6665V24.0001H7.99984V26.6667Z" fill="#9695F8"/>
<path d="M26.6668 13.3333H29.3335V10.6666H26.6668V13.3333Z" fill="#9695F8"/>
<path d="M2.66683 13.3333H5.3335V10.6666H2.66683L2.66683 13.3333Z" fill="#9695F8"/>
<path d="M-0.00016284 13.3333H2.6665L2.6665 10.6666H-0.00016284L-0.00016284 13.3333Z" fill="#5552FD"/>
<path d="M2.66683 10.6667H5.3335V8.00008H2.66683L2.66683 10.6667Z" fill="#5552FD"/>
<path d="M29.3332 10.6667L26.6665 10.6667L26.6665 8.00008L29.3332 8.00008L29.3332 10.6667Z" fill="#5552FD"/>
<path d="M21.3333 29.3333H24V26.6666H21.3333V29.3333Z" fill="#5552FD"/>
<path d="M2.6665 21.3333V24H5.33317V21.3333H2.6665Z" fill="#5552FD"/>
<path d="M5.33333 8H8V5.33333H5.33333V8Z" fill="#5552FD"/>
<path d="M26.6667 8L24 8L24 5.33333L26.6667 5.33333L26.6667 8Z" fill="#5552FD"/>
<path d="M23.9998 26.6667H26.6665V24.0001H23.9998V26.6667Z" fill="#5552FD"/>
<path d="M5.3335 24.0001V26.6667H8.00016V24.0001H5.3335Z" fill="#5552FD"/>
<path d="M7.99984 5.33325H10.6665V2.66659L7.99984 2.66659V5.33325Z" fill="#5552FD"/>
<path d="M24.0002 5.33325L21.3335 5.33325L21.3335 2.66659L24.0002 2.66658L24.0002 5.33325Z" fill="#5552FD"/>
<path d="M26.6668 24H29.3335V21.3333H26.6668V24Z" fill="#5552FD"/>
<path d="M8 26.6666V29.3333H10.6667V26.6666H8Z" fill="#5552FD"/>
<path d="M29.3333 13.3333H32V10.6666H29.3333V13.3333Z" fill="#5552FD"/>
<path d="M26.6668 16H29.3335V13.3333H26.6668V16Z" fill="#9695F8"/>
<path d="M2.66683 16H5.3335V13.3333H2.66683L2.66683 16Z" fill="#9695F8"/>
<path d="M-0.00016284 16H2.6665L2.6665 13.3333H-0.00016284L-0.00016284 16Z" fill="#5552FD"/>
<path d="M29.3333 16H32V13.3333H29.3333V16Z" fill="#5552FD"/>
<path d="M26.6668 18.6667H29.3335V16.0001H26.6668V18.6667Z" fill="#9695F8"/>
<path d="M2.66683 18.6667H5.3335V16.0001H2.66683L2.66683 18.6667Z" fill="#9695F8"/>
<path d="M-0.00016284 18.6667H2.6665L2.6665 16.0001H-0.00016284L-0.00016284 18.6667Z" fill="#5552FD"/>
<path d="M29.3333 18.6667H32V16.0001H29.3333V18.6667Z" fill="#5552FD"/>
<path d="M26.6668 21.3333H29.3335V18.6666H26.6668V21.3333Z" fill="#9695F8"/>
<path d="M2.66683 21.3333H5.3335V18.6666H2.66683L2.66683 21.3333Z" fill="#9695F8"/>
<path d="M-0.00016284 21.3333H2.6665L2.6665 18.6666H-0.00016284L-0.00016284 21.3333Z" fill="#5552FD"/>
<path d="M29.3333 21.3333H32V18.6666H29.3333V21.3333Z" fill="#5552FD"/>
<path d="M18.6668 24L21.3335 24L21.3335 26.6667L18.6668 26.6667L18.6668 24Z" fill="#FED955"/>
<path d="M15.9998 13.3333H18.6665V10.6666H15.9998V13.3333Z" fill="#FED955"/>
<path d="M15.9998 18.6667H18.6665V16.0001H15.9998V18.6667Z" fill="#FED955"/>
<path d="M15.9998 21.3333H18.6665V18.6666H15.9998V21.3333Z" fill="#FED955"/>
<path d="M15.9998 10.6667H18.6665V8.00008H15.9998V10.6667Z" fill="#FED955"/>
<path d="M15.9998 21.3333L18.6665 21.3333L18.6665 23.9999L15.9998 23.9999L15.9998 21.3333Z" fill="#FED955"/>
<path d="M10.6668 18.6667H13.3335V16.0001H10.6668V18.6667Z" fill="#FED955"/>
<path d="M10.6668 16H13.3335V13.3333H10.6668V16Z" fill="#FED955"/>
<path d="M10.6668 21.3333H13.3335V18.6666H10.6668V21.3333Z" fill="#FED955"/>
<path d="M10.6668 10.6667H13.3335V8.00008H10.6668V10.6667Z" fill="#FED955"/>
<path d="M10.6668 21.3333L13.3335 21.3333L13.3335 23.9999L10.6668 23.9999L10.6668 21.3333Z" fill="#FED955"/>
<path d="M18.6668 18.6667H21.3335V16.0001H18.6668V18.6667Z" fill="#FED955"/>
<path d="M18.6668 16H21.3335V13.3333H18.6668V16Z" fill="#FED955"/>
<path d="M18.6668 21.3333H21.3335V18.6666H18.6668V21.3333Z" fill="#FED955"/>
<path d="M18.6668 10.6667H21.3335V8.00008H18.6668V10.6667Z" fill="#FED955"/>
<path d="M18.6668 21.3333L21.3335 21.3333L21.3335 23.9999L18.6668 23.9999L18.6668 21.3333Z" fill="#FED955"/>
<path d="M13.3333 8H16V5.33333H13.3333V8Z" fill="#FED955"/>
<path d="M13.3333 24L16 24L16 26.6667L13.3333 26.6667L13.3333 24Z" fill="#FED955"/>
<path d="M10.6668 8H13.3335V5.33333H10.6668V8Z" fill="#FED955"/>
<path d="M10.6668 24L13.3335 24L13.3335 26.6667L10.6668 26.6667L10.6668 24Z" fill="#FED955"/>
<path d="M13.3333 13.3333H16V10.6666H13.3333V13.3333Z" fill="#FED955"/>
<path d="M13.3333 18.6667H16V16.0001H13.3333V18.6667Z" fill="#FED955"/>
<path d="M10.6668 13.3333H13.3335V10.6666H10.6668V13.3333Z" fill="#5552FD"/>
<path d="M15.9998 16H18.6665V13.3333H15.9998V16Z" fill="#5552FD"/>
<path d="M21.3333 13.3333H24V10.6666H21.3333V13.3333Z" fill="#5552FD"/>
<path d="M21.3333 18.6667H24V16.0001H21.3333V18.6667Z" fill="#5552FD"/>
<path d="M21.3333 16H24V13.3333H21.3333V16Z" fill="#5552FD"/>
<path d="M21.3333 21.3333H24V18.6666H21.3333V21.3333Z" fill="#5552FD"/>
<path d="M21.3333 10.6667H24V8.00008H21.3333V10.6667Z" fill="#5552FD"/>
<path d="M21.3333 21.3333L24 21.3333L24 23.9999L21.3333 23.9999L21.3333 21.3333Z" fill="#5552FD"/>
<path d="M7.99984 13.3333H10.6665V10.6666H7.99984V13.3333Z" fill="#5552FD"/>
<path d="M7.99984 18.6667H10.6665V16.0001H7.99984V18.6667Z" fill="#5552FD"/>
<path d="M7.99984 16H10.6665V13.3333H7.99984V16Z" fill="#5552FD"/>
<path d="M7.99984 21.3333H10.6665V18.6666H7.99984V21.3333Z" fill="#5552FD"/>
<path d="M7.99984 10.6667H10.6665V8.00008H7.99984V10.6667Z" fill="#5552FD"/>
<path d="M7.99984 21.3333L10.6665 21.3333L10.6665 23.9999L7.99984 23.9999L7.99984 21.3333Z" fill="#5552FD"/>
<path d="M18.6668 13.3333H21.3335V10.6666H18.6668V13.3333Z" fill="#5552FD"/>
<path d="M13.3333 16H16V13.3333H13.3333V16Z" fill="#5552FD"/>
<path d="M13.3333 21.3333H16V18.6666H13.3333V21.3333Z" fill="#FED955"/>
<path d="M13.3333 10.6667H16V8.00008H13.3333V10.6667Z" fill="#FED955"/>
<path d="M13.3333 21.3333L16 21.3333L16 23.9999L13.3333 23.9999L13.3333 21.3333Z" fill="#FED955"/>
<path d="M23.9998 13.3333H26.6665V10.6666H23.9998V13.3333Z" fill="#FED955"/>
<path d="M23.9998 18.6667H26.6665V16.0001H23.9998V18.6667Z" fill="#FED955"/>
<path d="M23.9998 16H26.6665V13.3333H23.9998V16Z" fill="#FED955"/>
<path d="M23.9998 21.3333H26.6665V18.6666H23.9998V21.3333Z" fill="#FED955"/>
</svg>
