<svg width="512" height="512" viewBox="0 0 512 512" fill="none" xmlns="http://www.w3.org/2000/svg">
<circle cx="256" cy="256" r="254" fill="#2B95F7" stroke="#001325" stroke-width="4"/>
<path d="M209.808 231.412H213.273L211.54 228.412L167.978 152.988L167.978 152.987C165.811 149.242 164.666 144.982 164.666 140.677C164.666 131.891 169.394 123.699 177.004 119.312C188.789 112.519 203.908 116.569 210.7 128.339L210.701 128.34L254.27 203.764L256.002 206.762L257.734 203.764L301.311 128.34L301.311 128.34C304.607 122.632 309.923 118.554 316.288 116.852L316.289 116.852C322.654 115.145 329.295 116.021 335.007 119.316C342.618 123.707 347.345 131.895 347.345 140.677C347.345 144.982 346.2 149.242 344.037 152.988C344.037 152.988 344.037 152.988 344.037 152.988L300.46 228.412L298.726 231.412H302.192H389.334C402.936 231.412 414 242.471 414 256.061C414 269.651 402.936 280.71 389.334 280.71H302.192H298.727L300.46 283.71L344.029 359.142L344.03 359.143C346.196 362.888 347.338 367.147 347.338 371.453C347.338 380.231 342.61 388.42 335.002 392.815C323.218 399.611 308.103 395.561 301.303 383.79L257.734 308.362L256.002 305.365L254.27 308.362L210.693 383.783L210.693 383.784C203.9 395.554 188.781 399.604 176.996 392.814C169.389 388.418 164.662 380.237 164.662 371.453C164.662 367.145 165.807 362.885 167.971 359.135C167.971 359.135 167.971 359.134 167.971 359.134L211.54 283.714L213.274 280.714H209.808H122.666C109.064 280.714 98 269.652 98 256.061C98 242.471 109.068 231.412 122.666 231.412H209.808Z" fill="white" stroke="black" stroke-width="4"/>
</svg>
