<svg width="992" height="512" viewBox="0 0 992 512" fill="none" xmlns="http://www.w3.org/2000/svg">
<g clip-path="url(#clip0_48_13)">
<path d="M565.333 213.332H608V170.665H565.333V213.332Z" fill="#FED955"/>
<path d="M565.333 298.668H608V256.001H565.333V298.668Z" fill="#FED955"/>
<path d="M565.333 256H608V213.333H565.333V256Z" fill="#FED955"/>
<path d="M565.333 341.332H608V298.665H565.333V341.332Z" fill="#FED955"/>
<path d="M735.997 128H778.664V85.3333H735.997V128Z" fill="#FED955"/>
<path d="M735.997 384L778.664 384L778.664 426.667L735.997 426.667L735.997 384Z" fill="#FED955"/>
<path d="M778.669 128H821.335V85.3333H778.669V128Z" fill="#FED955"/>
<path d="M821.333 128H864V85.3333H821.333V128Z" fill="#9695F8"/>
<path d="M650.667 128L608 128L608 85.3333L650.667 85.3333L650.667 128Z" fill="#9695F8"/>
<path d="M906.667 384L864 384L864 341.333L906.667 341.333L906.667 384Z" fill="#9695F8"/>
<path d="M565.333 384H608V341.333H565.333V384Z" fill="#9695F8"/>
<path d="M778.669 85.332H821.335V42.6654L778.669 42.6654V85.332Z" fill="#9695F8"/>
<path d="M778.669 42.6677L821.335 42.6677V0.00105667L778.669 0.00105667V42.6677Z" fill="#5552FD"/>
<path d="M778.669 512H821.335V469.333H778.669V512Z" fill="#5552FD"/>
<path d="M778.669 469.332H821.335V426.665H778.669V469.332Z" fill="#9695F8"/>
<path d="M693.333 85.332H736V42.6654L693.333 42.6654V85.332Z" fill="#9695F8"/>
<path d="M693.333 42.6677L736 42.6677V0.00105667L693.333 0.00105667V42.6677Z" fill="#5552FD"/>
<path d="M693.333 512H736V469.333H693.333V512Z" fill="#5552FD"/>
<path d="M693.333 469.332H736V426.665H693.333V469.332Z" fill="#9695F8"/>
<path d="M735.997 85.332H778.664V42.6654L735.997 42.6654V85.332Z" fill="#9695F8"/>
<path d="M735.997 42.6677L778.664 42.6677V0.00105667L735.997 0.00105667V42.6677Z" fill="#5552FD"/>
<path d="M735.997 512H778.664V469.333H735.997V512Z" fill="#5552FD"/>
<path d="M735.997 469.332H778.664V426.665H735.997V469.332Z" fill="#9695F8"/>
<path d="M650.669 85.332H693.335V42.6654L650.669 42.6654V85.332Z" fill="#9695F8"/>
<path d="M650.669 42.6677L693.335 42.6677V0.00105667L650.669 0.00105667V42.6677Z" fill="#5552FD"/>
<path d="M650.669 512H693.335V469.333H650.669V512Z" fill="#5552FD"/>
<path d="M650.669 469.332H693.335V426.665H650.669V469.332Z" fill="#9695F8"/>
<path d="M863.997 170.668H906.664V128.001H863.997V170.668Z" fill="#9695F8"/>
<path d="M608.002 170.668L565.335 170.668L565.335 128.001L608.002 128.001L608.002 170.668Z" fill="#9695F8"/>
<path d="M864.002 426.668L821.335 426.668L821.335 384.001L864.002 384.001L864.002 426.668Z" fill="#9695F8"/>
<path d="M607.997 426.668H650.664V384.001H607.997V426.668Z" fill="#9695F8"/>
<path d="M906.668 213.332H949.335V170.665H906.668V213.332Z" fill="#9695F8"/>
<path d="M522.669 213.332H565.335V170.665H522.669V213.332Z" fill="#9695F8"/>
<path d="M479.997 213.332H522.664V170.665H479.997V213.332Z" fill="#5552FD"/>
<path d="M522.669 170.668H565.335V128.001H522.669V170.668Z" fill="#5552FD"/>
<path d="M949.331 170.668L906.664 170.668L906.664 128.001L949.331 128.001L949.331 170.668Z" fill="#5552FD"/>
<path d="M821.333 469.332H864V426.665H821.333V469.332Z" fill="#5552FD"/>
<path d="M522.664 341.333V384H565.331V341.333H522.664Z" fill="#5552FD"/>
<path d="M565.333 128H608V85.3333H565.333V128Z" fill="#5552FD"/>
<path d="M906.667 128L864 128L864 85.3333L906.667 85.3333L906.667 128Z" fill="#5552FD"/>
<path d="M863.997 426.668H906.664V384.001H863.997V426.668Z" fill="#5552FD"/>
<path d="M565.335 384.001V426.668H608.002V384.001H565.335Z" fill="#5552FD"/>
<path d="M607.997 85.332H650.664V42.6654L607.997 42.6654V85.332Z" fill="#5552FD"/>
<path d="M864.002 85.332L821.335 85.332L821.335 42.6654L864.002 42.6654L864.002 85.332Z" fill="#5552FD"/>
<path d="M906.668 384H949.335V341.333H906.668V384Z" fill="#5552FD"/>
<path d="M608 426.665V469.332H650.667V426.665H608Z" fill="#5552FD"/>
<path d="M949.333 213.332H992V170.665H949.333V213.332Z" fill="#5552FD"/>
<path d="M906.668 256H949.335V213.333H906.668V256Z" fill="#9695F8"/>
<path d="M522.669 256H565.335V213.333H522.669V256Z" fill="#9695F8"/>
<path d="M479.997 256H522.664V213.333H479.997V256Z" fill="#5552FD"/>
<path d="M949.333 256H992V213.333H949.333V256Z" fill="#5552FD"/>
<path d="M906.668 298.668H949.335V256.001H906.668V298.668Z" fill="#9695F8"/>
<path d="M522.669 298.668H565.335V256.001H522.669V298.668Z" fill="#9695F8"/>
<path d="M479.997 298.668H522.664V256.001H479.997V298.668Z" fill="#5552FD"/>
<path d="M949.333 298.668H992V256.001H949.333V298.668Z" fill="#5552FD"/>
<path d="M906.668 341.332H949.335V298.665H906.668V341.332Z" fill="#9695F8"/>
<path d="M522.669 341.332H565.335V298.665H522.669V341.332Z" fill="#9695F8"/>
<path d="M479.997 341.332H522.664V298.665H479.997V341.332Z" fill="#5552FD"/>
<path d="M949.333 341.332H992V298.665H949.333V341.332Z" fill="#5552FD"/>
<path d="M778.669 384L821.335 384L821.335 426.667L778.669 426.667L778.669 384Z" fill="#FED955"/>
<path d="M735.997 213.332H778.664V170.665H735.997V213.332Z" fill="#FED955"/>
<path d="M735.997 298.668H778.664V256.001H735.997V298.668Z" fill="#FED955"/>
<path d="M735.997 341.332H778.664V298.665H735.997V341.332Z" fill="#FED955"/>
<path d="M735.997 170.668H778.664V128.001H735.997V170.668Z" fill="#FED955"/>
<path d="M735.997 341.332L778.664 341.332L778.664 383.999L735.997 383.999L735.997 341.332Z" fill="#FED955"/>
<path d="M650.669 298.668H693.335V256.001H650.669V298.668Z" fill="#FED955"/>
<path d="M650.669 256H693.335V213.333H650.669V256Z" fill="#FED955"/>
<path d="M650.669 341.332H693.335V298.665H650.669V341.332Z" fill="#FED955"/>
<path d="M650.669 170.668H693.335V128.001H650.669V170.668Z" fill="#FED955"/>
<path d="M650.669 341.332L693.335 341.332L693.335 383.999L650.669 383.999L650.669 341.332Z" fill="#FED955"/>
<path d="M778.669 298.668H821.335V256.001H778.669V298.668Z" fill="#FED955"/>
<path d="M778.669 256H821.335V213.333H778.669V256Z" fill="#FED955"/>
<path d="M778.669 341.332H821.335V298.665H778.669V341.332Z" fill="#FED955"/>
<path d="M778.669 170.668H821.335V128.001H778.669V170.668Z" fill="#FED955"/>
<path d="M778.669 341.332L821.335 341.332L821.335 383.999L778.669 383.999L778.669 341.332Z" fill="#FED955"/>
<path d="M693.333 128H736V85.3333H693.333V128Z" fill="#FED955"/>
<path d="M693.333 384L736 384L736 426.667L693.333 426.667L693.333 384Z" fill="#FED955"/>
<path d="M650.669 128H693.335V85.3333H650.669V128Z" fill="#FED955"/>
<path d="M650.669 384L693.335 384L693.335 426.667L650.669 426.667L650.669 384Z" fill="#FED955"/>
<path d="M693.333 213.332H736V170.665H693.333V213.332Z" fill="#FED955"/>
<path d="M693.333 298.668H736V256.001H693.333V298.668Z" fill="#FED955"/>
<path d="M650.669 213.332H693.335V170.665H650.669V213.332Z" fill="#5552FD"/>
<path d="M735.997 256H778.664V213.333H735.997V256Z" fill="#5552FD"/>
<path d="M821.333 213.332H864V170.665H821.333V213.332Z" fill="#5552FD"/>
<path d="M821.333 298.668H864V256.001H821.333V298.668Z" fill="#5552FD"/>
<path d="M821.333 256H864V213.333H821.333V256Z" fill="#5552FD"/>
<path d="M821.333 341.332H864V298.665H821.333V341.332Z" fill="#5552FD"/>
<path d="M821.333 170.668H864V128.001H821.333V170.668Z" fill="#5552FD"/>
<path d="M821.333 341.332L864 341.332L864 383.999L821.333 383.999L821.333 341.332Z" fill="#5552FD"/>
<path d="M607.997 213.332H650.664V170.665H607.997V213.332Z" fill="#5552FD"/>
<path d="M607.997 298.668H650.664V256.001H607.997V298.668Z" fill="#5552FD"/>
<path d="M607.997 256H650.664V213.333H607.997V256Z" fill="#5552FD"/>
<path d="M607.997 341.332H650.664V298.665H607.997V341.332Z" fill="#5552FD"/>
<path d="M607.997 170.668H650.664V128.001H607.997V170.668Z" fill="#5552FD"/>
<path d="M607.997 341.332L650.664 341.332L650.664 383.999L607.997 383.999L607.997 341.332Z" fill="#5552FD"/>
<path d="M778.669 213.332H821.335V170.665H778.669V213.332Z" fill="#5552FD"/>
<path d="M693.333 256H736V213.333H693.333V256Z" fill="#5552FD"/>
<path d="M693.333 341.332H736V298.665H693.333V341.332Z" fill="#FED955"/>
<path d="M693.333 170.668H736V128.001H693.333V170.668Z" fill="#FED955"/>
<path d="M693.333 341.332L736 341.332L736 383.999L693.333 383.999L693.333 341.332Z" fill="#FED955"/>
<path d="M863.997 213.332H906.664V170.665H863.997V213.332Z" fill="#FED955"/>
<path d="M863.997 298.668H906.664V256.001H863.997V298.668Z" fill="#FED955"/>
<path d="M863.997 256H906.664V213.333H863.997V256Z" fill="#FED955"/>
<path d="M863.997 341.332H906.664V298.665H863.997V341.332Z" fill="#FED955"/>
<circle cx="256" cy="256" r="256" fill="#2151F5"/>
<path d="M440.53 309.301C440.53 346.395 420.497 380.434 387.203 405.405C353.906 430.377 307.633 446 256.265 446C204.898 446 158.624 430.377 125.327 405.405C92.0327 380.434 72 346.395 72 309.301C72 272.208 92.0327 238.169 125.327 213.198C158.624 188.226 204.898 172.603 256.265 172.603C307.633 172.603 353.906 188.226 387.203 213.198C420.497 238.169 440.53 272.208 440.53 309.301Z" fill="#C4C4C4" stroke="black" stroke-width="12"/>
<path d="M242.118 142.429C241.564 152.354 236.512 163.823 227.893 175.892C218.836 188.575 206.304 201.275 192.614 212.6C178.938 223.914 164.286 233.708 151.122 240.641C137.693 247.714 126.666 251.349 119.976 251.349C111.683 251.349 106.455 250.986 102.976 249.987C99.9822 249.127 98.7529 247.956 97.8636 246.055C96.6916 243.549 95.986 239.416 95.7169 232.101C95.5304 227.032 95.5559 220.963 95.5872 213.506C95.6003 210.381 95.6145 207.014 95.6145 203.373C95.6145 179.808 101.568 144.624 111.598 115.399C116.614 100.782 122.525 88.0335 128.965 79.063C135.43 70.0579 141.443 66.179 146.603 66.0061C160.387 67.9381 176.517 75.7526 193.334 89.0764C209.851 102.162 226.674 120.283 242.118 142.429Z" fill="#1D1D24" stroke="black" stroke-width="12"/>
<path d="M232.681 156.86C232.362 166.664 227.906 177.775 220.507 189.205C212.868 201.004 202.334 212.768 190.871 223.227C179.414 233.682 167.14 242.731 156.105 249.142C144.87 255.668 135.549 259.084 129.814 259.084C122.907 259.084 118.467 258.754 115.466 257.804C112.838 256.971 111.486 255.732 110.528 253.473C109.4 250.813 108.81 246.676 108.585 239.934C108.429 235.232 108.45 229.59 108.476 222.709C108.487 219.843 108.499 216.763 108.499 213.445C108.499 191.536 113.503 158.974 121.916 131.936C126.125 118.409 131.112 106.513 136.597 98.0858C142.138 89.5723 147.423 85.7377 152.047 85.5945C163.707 87.382 177.312 94.6599 191.453 107.018C205.433 119.234 219.654 136.17 232.681 156.86Z" fill="white" stroke="black" stroke-width="8"/>
<path d="M268.388 143.103C268.941 153.029 273.994 164.498 282.613 176.567C291.669 189.25 304.202 201.95 317.892 213.275C331.568 224.589 346.22 234.383 359.383 241.316C372.812 248.388 383.84 252.024 390.53 252.024C398.822 252.024 404.051 251.661 407.53 250.662C410.524 249.802 411.753 248.631 412.642 246.73C413.814 244.224 414.52 240.09 414.789 232.776C414.975 227.707 414.95 221.638 414.919 214.18C414.906 211.056 414.891 207.688 414.891 204.048C414.891 180.483 408.938 145.299 398.908 116.074C393.892 101.457 387.981 88.7082 381.541 79.7377C375.076 70.7326 369.062 66.8536 363.903 66.6807C350.119 68.6127 333.989 76.4272 317.172 89.7511C300.654 102.837 283.832 120.958 268.388 143.103Z" fill="#1D1D24" stroke="black" stroke-width="12"/>
<path d="M276.476 156.86C276.795 166.664 281.25 177.775 288.65 189.205C296.289 201.004 306.823 212.768 318.286 223.227C329.743 233.682 342.016 242.731 353.052 249.142C364.286 255.668 373.608 259.084 379.343 259.084C386.249 259.084 390.69 258.754 393.691 257.804C396.319 256.971 397.671 255.732 398.629 253.473C399.757 250.813 400.346 246.676 400.571 239.934C400.728 235.232 400.707 229.59 400.68 222.709C400.67 219.843 400.658 216.763 400.658 213.445C400.658 191.536 395.654 158.974 387.241 131.936C383.032 118.409 378.045 106.513 372.56 98.0858C367.018 89.5723 361.734 85.7377 357.11 85.5945C345.449 87.382 331.845 94.6599 317.703 107.018C303.724 119.234 289.503 136.17 276.476 156.86Z" fill="white" stroke="black" stroke-width="8"/>
<path d="M414.892 241.831C414.892 272.896 397.683 301.533 368.836 322.624C339.994 343.713 299.856 356.94 255.253 356.94C210.651 356.94 170.513 343.713 141.67 322.624C112.824 301.533 95.6147 272.896 95.6147 241.831C95.6147 210.767 112.824 182.13 141.67 161.038C170.513 139.95 210.651 126.723 255.253 126.723C299.856 126.723 339.994 139.95 368.836 161.038C397.683 182.13 414.892 210.767 414.892 241.831Z" fill="white" stroke="black" stroke-width="12"/>
<ellipse cx="256.265" cy="309.301" rx="182.169" ry="134.602" fill="white"/>
<path d="M253.566 324.819V394.988C253.566 394.988 229.178 397.687 220.843 392.627C212.509 387.566 201.614 369.012 195.205 355.518C187.108 347.422 185.759 329.542 187.783 327.518C189.807 325.494 202.964 338.313 219.494 338.313C236.024 338.313 253.566 324.819 253.566 324.819Z" fill="#B1B1D7"/>
<path d="M257.615 325.157V395.325C257.615 395.325 282.003 398.024 290.337 392.964C298.672 387.904 309.566 369.349 315.976 355.855C324.072 347.759 325.422 329.88 323.398 327.855C321.374 325.831 308.217 338.651 291.687 338.651C275.157 338.651 257.615 325.157 257.615 325.157Z" fill="#B1B1D7"/>
<path d="M255.859 327.518V408.819C248.775 408.819 234.944 408.819 220.775 393.301C206.606 377.783 200.197 352.819 200.197 352.819C200.197 352.819 195.136 349.108 191.763 342.361C188.389 335.614 186.365 328.193 188.052 327.518C189.739 326.843 201.546 348.434 221.787 348.434C242.028 348.434 255.859 327.518 255.859 327.518Z" fill="black"/>
<path d="M255.859 327.52V408.821C262.943 408.821 276.775 408.821 290.943 393.303C305.112 377.785 311.522 352.821 311.522 352.821C311.522 352.821 316.582 349.11 319.955 342.363C323.329 335.617 325.353 328.195 323.666 327.52C321.979 326.845 310.172 348.436 289.931 348.436C269.69 348.436 255.859 327.52 255.859 327.52Z" fill="black"/>
<path d="M288.313 315.036C288.313 325.47 272.696 335.277 255.928 335.277C239.159 335.277 223.879 325.47 223.879 315.036C223.879 297.494 239.159 297.494 255.928 297.494C272.696 297.494 288.313 297.494 288.313 315.036Z" fill="black"/>
<ellipse cx="255.928" cy="306.602" rx="16.1928" ry="4.38554" fill="white"/>
<path d="M286.626 377.446C286.626 385.205 273.884 401.06 255.253 401.06C236.622 401.06 223.879 385.542 223.879 377.446C223.879 369.349 236.622 361.59 255.253 361.59C273.884 361.59 286.626 369.687 286.626 377.446Z" fill="#B33387"/>
<path d="M286.626 377.446C286.626 385.205 273.884 401.06 255.253 401.06C236.622 401.06 223.879 385.542 223.879 377.446C223.879 369.349 236.622 361.59 255.253 361.59C273.884 361.59 286.626 369.687 286.626 377.446Z" fill="#B33387"/>
<path d="M286.626 377.446C286.626 385.205 273.884 388.241 255.253 388.241C236.622 388.241 223.879 385.542 223.879 377.446C223.879 369.349 236.622 361.59 255.253 361.59C273.884 361.59 286.626 369.687 286.626 377.446Z" fill="#FA4E94"/>
<path d="M286.626 377.446C286.626 385.205 273.884 388.241 255.253 388.241C236.622 388.241 223.879 385.542 223.879 377.446C223.879 369.349 236.622 361.59 255.253 361.59C273.884 361.59 286.626 369.687 286.626 377.446Z" fill="#FA4E94"/>
<path d="M176.313 261.435C179.012 261.772 188.345 264.809 194.193 272.905C200.04 281.001 202.289 293.821 199.59 293.821C196.891 293.821 190.482 276.953 174.626 276.279C158.771 275.604 147.638 286.736 144.94 286.736C142.241 286.736 145.952 275.604 154.048 267.507C162.144 259.411 173.614 261.098 176.313 261.435Z" fill="black"/>
<path d="M339.374 261.435C336.675 261.772 327.342 264.809 321.494 272.905C315.647 281.001 313.398 293.821 316.097 293.821C318.796 293.821 325.205 276.953 341.061 276.278C356.916 275.604 368.049 286.736 370.747 286.736C373.446 286.736 369.735 275.604 361.639 267.507C353.543 259.411 342.073 261.098 339.374 261.435Z" fill="black"/>
<path d="M75.4458 325.831C75.4458 325.831 109.518 373.398 146.964 392.626C184.41 411.855 224.892 427.373 255.59 427.373C286.289 427.373 272.12 443.169 255.59 443.904C239.06 444.638 207.349 439.855 196.217 436.482C184.41 433.446 161.47 425.687 144.265 415.566C127.06 405.446 111.205 394.988 94.3374 371.036C77.4699 347.084 75.4458 325.831 75.4458 325.831Z" fill="#B1B1D7"/>
<path d="M436.96 325.831C436.96 325.831 402.888 373.398 365.442 392.626C327.997 411.855 287.515 427.373 256.816 427.373C226.117 427.373 240.286 443.169 256.816 443.904C273.346 444.638 305.057 439.855 316.189 436.482C327.997 433.446 350.936 425.687 368.141 415.566C385.346 405.446 401.201 394.988 418.069 371.036C434.936 347.084 436.96 325.831 436.96 325.831Z" fill="#B1B1D7"/>
<path d="M216.121 173.687C230.289 187.855 222.53 237.783 233.326 248.578C244.121 259.374 255.503 259.711 255.503 259.711V209.446V195.277V177.398V159.518V142.651V128.819C255.503 128.819 216.209 127.133 179.687 142.651C151.012 150.747 124.362 178.747 120.563 182.795C116.764 186.843 98.0484 207.759 97.6231 242.843C83.8797 257.349 77.2941 282.988 76.7074 286.024C68.3616 306.94 78.0568 337.976 78.0568 337.976C78.0568 337.976 71.3825 318.41 87.9279 290.41C104.473 262.41 114.579 276.241 129.085 248.578C143.591 220.916 140.892 206.072 164.169 182.795C187.446 159.518 201.952 159.518 216.121 173.687Z" fill="#1D1D24"/>
<path d="M294.972 173.741C280.803 187.909 288.562 237.837 277.767 248.632C266.972 259.427 255.59 259.765 255.59 259.765V209.5V195.331V177.451V159.572V142.704V128.873C255.59 128.873 294.884 127.186 331.406 142.704C360.08 150.801 386.731 178.801 390.53 182.849C394.329 186.897 412.707 204.048 413.132 239.133C426.875 253.639 434.473 280.627 435.06 283.663C443.406 304.578 435.06 336.289 435.06 336.289C435.06 336.289 439.71 318.463 423.165 290.463C406.619 262.463 396.514 276.295 382.008 248.632C367.502 220.97 370.201 206.126 346.924 182.849C323.647 159.572 309.14 159.572 294.972 173.741Z" fill="#1D1D24"/>
<path d="M250.439 128.819H260.886C260.886 128.819 264.151 256.765 260.886 258.448C257.622 260.132 254.03 260.132 250.439 258.448C246.848 256.765 250.439 128.819 250.439 128.819Z" fill="#1D1D24"/>
</g>
<defs>
<clipPath id="clip0_48_13">
<rect width="992" height="512" fill="white"/>
</clipPath>
</defs>
</svg>
